<svg xmlns="http://www.w3.org/2000/svg" width="148.4" height="117.69">
  <path fill="#151b23" d="M0 39.66h148.4v78.03H0z"/>
  <path fill="#0d1117" d="M.02 0H148.4v48.53H.02z"/>
  <path fill="#f0f6fc" d="M47.4 86.01v2.8h3.68v1.26h-3.67v5.34q0 1.09.41 1.52t1.44.43h1.82v1.3H49.1q-1.82 0-2.56-.74-.75-.73-.75-2.51v-5.34h-2.63v-1.26h2.63v-2.8zm11.62 7.7h-.54q-1.41 0-2.13.5-.72.49-.72 1.47 0 .9.54 1.38.54.5 1.48.5 1.34 0 2.1-.93.77-.93.78-2.56v-.36zm3.13-.67v5.61h-1.62v-1.46q-.52.88-1.31 1.3-.78.42-1.9.42-1.51 0-2.4-.85-.9-.85-.9-2.27 0-1.65 1.1-2.5t3.24-.85h2.17v-.26q-.01-1.17-.6-1.7-.59-.54-1.88-.54-.83 0-1.67.24t-1.64.7v-1.62q.9-.34 1.71-.51.83-.18 1.6-.18 1.22 0 2.08.36t1.4 1.08q.34.44.48 1.1.14.64.14 1.93m9.6.7q0-1.88-.6-2.84t-1.76-.96q-1.18 0-1.79.97-.6.96-.6 2.83 0 1.86.6 2.83.61.97 1.79.97 1.17 0 1.76-.96t.6-2.84M67 90.07q.38-.72 1.06-1.11t1.58-.39q1.78 0 2.8 1.37t1.02 3.77q0 2.43-1.03 3.82-1.02 1.38-2.8 1.38-.88 0-1.56-.38-.67-.39-1.07-1.12v1.24h-1.62V84.98H67zm13.84 5.02q0 1.1.4 1.65t1.18.55h1.9v1.36h-2.06q-1.45 0-2.25-.92-.79-.93-.79-2.64v-8.9h-2.59v-1.26h4.21zm14.36-2.17v.8h-7v.05q-.07 2 .76 2.89.84.88 2.37.88.78 0 1.62-.25.85-.24 1.8-.75v1.61q-.92.38-1.78.57-.85.19-1.65.19-2.3 0-3.59-1.37-1.3-1.38-1.3-3.8 0-2.36 1.27-3.76t3.38-1.4q1.88 0 2.96 1.27 1.1 1.27 1.16 3.07m-1.62-.47q-.1-1.02-.74-1.76-.64-.75-1.83-.75-1.17 0-1.93.78-.75.77-.82 1.74zm11.17-3.3v1.58q-.7-.4-1.4-.6t-1.43-.2q-1.1 0-1.65.36-.53.35-.53 1.08 0 .66.4.98.4.33 2.01.63l.65.13q1.2.23 1.82.91t.63 1.79q0 1.45-1.04 2.28t-2.88.82q-.73 0-1.53-.16-.8-.15-1.73-.46v-1.67q.9.47 1.73.7.82.23 1.56.23 1.07 0 1.66-.43.6-.44.6-1.22 0-1.12-2.16-1.55l-.07-.02-.6-.12q-1.4-.28-2.05-.92-.64-.65-.64-1.76 0-1.42.96-2.18.96-.78 2.73-.78.8 0 1.52.15.73.14 1.44.43M37.1 67.31q.3-.63.76-.93t1.12-.3q1.18 0 1.67.92.49.9.49 3.45v5.7h-1.48v-5.63q0-2.08-.24-2.58-.22-.51-.84-.51-.7 0-.97.54-.25.54-.25 2.55v5.63h-1.48v-5.63q0-2.11-.25-2.6t-.9-.5-.9.55q-.24.54-.24 2.55v5.63h-1.47v-9.84h1.47v.84q.29-.52.72-.8.44-.28 1-.28.66 0 1.1.31.45.3.7.93m11.07 3.9h-.54q-1.41 0-2.13.5-.71.49-.71 1.47 0 .9.53 1.38.54.5 1.49.5 1.33 0 2.1-.93.76-.93.77-2.56v-.36zm3.14-.67v5.61h-1.63v-1.46q-.52.88-1.3 1.3-.79.42-1.92.42-1.5 0-2.4-.85t-.9-2.27q0-1.65 1.1-2.5 1.12-.85 3.25-.85h2.18v-.26q0-1.17-.6-1.7-.58-.54-1.88-.54-.82 0-1.67.24-.84.24-1.64.7v-1.62q.9-.34 1.71-.51.83-.18 1.6-.18 1.22 0 2.09.36t1.4 1.08q.34.44.48 1.1.14.64.14 1.93m11.68-2.2q-.52-.4-1.06-.59-.53-.18-1.17-.18-1.52 0-2.32.95t-.8 2.74v4.9h-1.62v-9.85h1.62v1.92q.4-1.04 1.24-1.6.85-.56 2-.56.6 0 1.12.15.51.15.99.47zm2.76-5.86h1.67v7.92l4.24-4.09h1.97l-3.87 3.7 4.48 6.14h-1.98l-3.64-5.08-1.2 1.14v3.94h-1.67zm16.3 5.09v-5.1h1.62v13.68h-1.62v-1.24q-.4.73-1.08 1.12-.67.38-1.55.38-1.78 0-2.8-1.38-1.03-1.39-1.03-3.82 0-2.4 1.03-3.77t2.8-1.37q.9 0 1.57.39.68.38 1.06 1.1m-4.75 3.67q0 1.88.6 2.84t1.76.96 1.78-.97.61-2.83-.61-2.83-1.78-.97-1.77.96-.6 2.84m13.46-3.8q-1.23 0-1.86.96t-.63 2.84q0 1.87.63 2.84t1.86.96q1.24 0 1.87-.96.64-.97.64-2.84 0-1.88-.64-2.84-.63-.96-1.87-.96m0-1.37q2.05 0 3.13 1.33 1.1 1.33 1.1 3.84 0 2.52-1.1 3.85-1.07 1.32-3.13 1.32t-3.13-1.32q-1.08-1.33-1.08-3.85 0-2.51 1.08-3.84t3.13-1.33m5.42.24h1.6l1.72 7.95 1.4-5.08h1.38l1.43 5.08 1.71-7.95h1.6l-2.3 9.84h-1.55l-1.57-5.4-1.57 5.4H98.5zm20.08 3.74v6.1h-1.63v-6.1q0-1.32-.46-1.95t-1.46-.62q-1.14 0-1.75.8-.6.8-.6 2.31v5.56h-1.62V66.3h1.61v1.48q.43-.85 1.17-1.28t1.75-.44q1.5 0 2.24 1 .75.98.75 2.98M28.83 30.81q-.65.38-1.35.56-.68.2-1.4.2-2.29 0-3.58-1.37-1.28-1.38-1.28-3.8 0-2.43 1.28-3.8 1.29-1.37 3.58-1.37.7 0 1.38.18.68.19 1.37.58v1.69q-.65-.58-1.3-.83-.64-.26-1.45-.26-1.53 0-2.34.99-.82.98-.82 2.8 0 1.83.82 2.82t2.34.99q.84 0 1.5-.26.68-.26 1.25-.8zm6.92-8.2q-1.23 0-1.86.95-.63.96-.63 2.84t.63 2.84 1.86.96q1.24 0 1.87-.96.64-.97.64-2.84 0-1.88-.64-2.84-.63-.96-1.87-.96m0-1.38q2.05 0 3.13 1.33 1.1 1.32 1.1 3.84t-1.09 3.85-3.14 1.32-3.13-1.32q-1.08-1.33-1.08-3.85t1.08-3.84 3.13-1.33m12.97 1.5v-5.1h1.61V31.3h-1.61v-1.22q-.4.73-1.08 1.12-.67.38-1.55.38-1.79 0-2.81-1.38-1.02-1.4-1.02-3.83 0-2.4 1.02-3.76 1.03-1.37 2.8-1.37.9 0 1.57.39.68.37 1.07 1.1m-4.76 3.67q0 1.88.6 2.84t1.77.96 1.77-.97q.62-.97.62-2.83 0-1.87-.62-2.83-.6-.97-1.77-.97t-1.77.96-.6 2.84m17.9-.82v.8h-7v.04q-.08 2.02.76 2.9t2.37.88q.77 0 1.62-.25.84-.25 1.8-.75v1.61q-.93.38-1.79.56-.85.2-1.65.2-2.3 0-3.58-1.37-1.3-1.38-1.3-3.8 0-2.36 1.27-3.76 1.26-1.41 3.37-1.41 1.88 0 2.97 1.27 1.09 1.28 1.16 3.08m-1.62-.47q-.1-1.02-.75-1.76-.63-.75-1.83-.75-1.17 0-1.92.77-.76.78-.83 1.75zm8.55-2.64q.3-.63.76-.93t1.11-.31q1.19 0 1.67.92.5.92.5 3.46v5.7h-1.48v-5.63q0-2.09-.24-2.59t-.84-.5q-.7 0-.97.54-.25.53-.25 2.55v5.63h-1.48v-5.63q0-2.11-.26-2.6-.24-.5-.9-.5-.63 0-.89.55-.25.53-.25 2.55v5.63h-1.46v-9.83h1.46v.84q.3-.53.73-.8.43-.28.99-.28.67 0 1.1.3.45.32.7.94m7.67-.97h4.14v8.55h3.21v1.26h-8.03v-1.26h3.2v-7.29h-2.52zM79 17.68h1.61v2.04H79zm15.68 5.82q-.51-.4-1.05-.6-.54-.18-1.18-.18-1.51 0-2.31.95t-.8 2.75v4.9H87.7v-9.85h1.63v1.92q.4-1.04 1.24-1.6t2-.56q.6 0 1.11.15t1 .47zm10.84 0q-.52-.4-1.05-.6-.54-.18-1.18-.18-1.51 0-2.31.95t-.8 2.75v4.9h-1.63v-9.85h1.63v1.92q.4-1.04 1.24-1.6t2-.56q.59 0 1.1.15.53.15 1 .47zm6.1-.9q-1.23 0-1.86.96t-.64 2.84q0 1.87.64 2.84.63.96 1.86.96 1.24 0 1.87-.96.64-.97.64-2.84 0-1.88-.64-2.84-.63-.96-1.87-.96m0-1.37q2.05 0 3.13 1.33 1.09 1.32 1.09 3.84t-1.08 3.85-3.14 1.32-3.13-1.32q-1.08-1.33-1.08-3.85t1.08-3.84 3.13-1.33m15.57 2.27q-.51-.4-1.05-.6-.54-.18-1.18-.18-1.5 0-2.3.95t-.8 2.75v4.9h-1.63v-9.85h1.62v1.92q.4-1.04 1.24-1.6t2-.56q.6 0 1.11.15t1 .47z"/>
  <path fill="#3d444d" d="M4.52 85.12v18H3v-18zm0-22.73v18H3v-18zm70.23-15.34h9.32v1.48h-9.32zm10.84 0h9.31v1.48h-9.31zm10.83 0h9.32v1.48h-9.32zm10.84 0h9.32v1.48h-9.32zm13.71-3.47h2.74v3.17h-2.74zm0 6.63h2.74v3.2h-2.74zm24.43-10.55v18h-1.52v-18zm0-22.74v18h-1.52v-18z"/>
  <path stroke="#3d444d" stroke-linecap="square" stroke-linejoin="round" stroke-width="1.5" d="M21 113.94h123.65M3.77 47.77h68.69m72.19 15.4v50.77M3.77 3.75v53.13m0-53.13H127.4"/>
</svg>
